,
  Hottest scene tracker on the net !!!   http://www.scenetime.com
 
         Please seed back after your download is completed

           Credit goes  to all seeders and  http://www.scenetime.com
 



...................................NFO:.................................................[IMG]http://leetleech.org/images/45150949867626535304.jpg[/IMG]



[b]The American 2010 R5 LiNE XViD LEGi0N


[img]http://leetleech.org/images/48874973695367351744.png[/img]

[color=red]General[/color]
Format: AVI
File size:  1.37 GiB  
Duration:   1h 40mn  
Overall bit rate:   1 956 Kbps 
IMDb Rating:   6.8/10  ( 6 529 votes)
Genre:        Crime | Drama | Thriller
Release:  1 September 2010 (USA)
iMDB Link: http://www.imdb.com/title/tt1440728/
ViDEO Link: http://www.youtube.com/watch?v=ifvsvpjwi_I
Source:    R5 LiNE DVDR-TWiZTED
Encoded By : DiLLoN



[color=red]Video[/color]
Format: MPEG-4 Visual
Format profile : Advanced Simple@L5
Format settings, QPel: No
Format settings, GMC: No warppoints
Format settings, Matrix: Default (H.263)
Muxing mode: Packed bitstream
Codec ID: XVID
Bit rate: 1 754 Kbps
Width:  720 pixels
Height: 400 pixels
Display aspect ratio: 16:9 
Frame rate: 25.000 fps
Chroma subsampling: 4:2:0
Bit depth: 24 bits
Scan type: Progressive
Bits/(Pixel*Frame): 0.244
Stream size: 1.23 GiB (90%)


[color=red]Audio[/color]
Format: AC3
Bit rate mode: Constant
Bit rate:  192 Kbps
Channel(s): 2 channels
Sampling rate: 48.0 KHz
Stream size: 138 MiB (10%)




[img]http://leetleech.org/images/89524873606771859129.png[/img]
An assassin hides out in Italy for one last assignment.


[color=red]Tagline:[/color]
N/A



[img]http://leetleech.org/images/84434050717770922575.png[/img]
George Clooney	 ...	Jack / Edward
Irina Bjrklund	 ...	Ingrid
Lars Hjelm	 ...	Hunter #1
Johan Leysen	 ...	Pavel
Paolo Bonacelli	 ...	Father Benedetto
Giorgio Gobbi	 ...	Man on Vespa
Silvana Bosi	 ...	Old Cheese Vendor
Thekla Reuten	 ...	Mathilde
Guido Palliggiano...	Waiter (Market)
Samuli Vauramo	 ...	Young Swedish Man
Antonio Rampino	 ...	Postmaster
Violante Placido ...	Clara
Filippo Timi	 ...	Fabio
Ilaria Cramerotti...	Hooker #2
Angelica Novak	 ...	Hooker #3



[color=red]GREETZ[/color]

Noir | Joshua08 | bigimac | xXTHORNXx | BMB |

kempas | KaN1vE | mike160 | HiTM4N | HiVE-CM8 |

Lungbuster | skillz | ELEKTRI4KA |

FLAWL3SS | IMAGiNE |  THC | CRYS | iNK |

AND ALL AFFILIATED SITES   



[color=red]SAMPLE INCLUDED![/color][/b]






[img]http://leetleech.org/images/95521316153253938506.png[/img]

[img]http://leetleech.org/images/76507349699647325600.png[/img]
[img]http://leetleech.org/images/91320801828259451874.png[/img]
[img]http://leetleech.org/images/91746515153839739513.png[/img]
[img]http://leetleech.org/images/98092370119550455703.png[/img]
[img]http://leetleech.org/images/38219714232284451716.png[/img]
[img]http://leetleech.org/images/12755021538703799215.png[/img]